<?xml version="1.0" encoding="UTF-8"?>
<svg xmlns="http://www.w3.org/2000/svg" width="28" height="28" viewBox="0 0 48 48">
  <title>Settings</title>
  <g fill="none" stroke="#2B3A55" stroke-width="3.6" stroke-linecap="round" stroke-linejoin="round">
    <path d="M24 6v5M24 37v5M6 24h5M37 24h5M11.27 11.27l3.54 3.54M33.19 33.19l3.54 3.54M36.73 11.27l-3.54 3.54M14.81 33.19l-3.54 3.54"/>
    <path d="M34.5 24A10.5 10.5 0 1 1 13.5 24A10.5 10.5 0 0 1 34.5 24Z"/>
    <path d="M28.5 24A4.5 4.5 0 1 1 19.5 24A4.5 4.5 0 0 1 28.5 24Z"/>
  </g>
</svg>
